<svg id="Layer_1" data-name="Layer 1" xmlns="http://www.w3.org/2000/svg" viewBox="0 0 1934 1313"><defs><style>.cls-1{fill:#cfcfcf;}.cls-2,.cls-3,.cls-4,.cls-7{fill:#999;}.cls-3,.cls-5{opacity:0.8;}.cls-4{opacity:0.75;}.cls-5,.cls-6,.cls-8{fill:#f55;}.cls-6{opacity:0.6;}.cls-7,.cls-8{opacity:0.5;}</style></defs><title>BG</title><rect class="cls-1" x="1" y="0.5" width="1919" height="1079"/><path d="M1919,1V1079H1V1H1919m1-1H0V1080H1920V0Z" transform="translate(0.5)"/><polygon class="cls-2" points="477 1079.5 995 656.5 1071 656.5 552 1079.5 477 1079.5"/><polygon class="cls-3" points="977 868 1495 445 1571 445 1052 868 977 868"/><polygon class="cls-4" points="1059 587 1577 164 1653 164 1134 587 1059 587"/><path class="cls-5" d="M761.5,1313" transform="translate(0.5)"/><line class="cls-5" x1="842.26" y1="1308.71" x2="837" y2="1313"/><path class="cls-5" d="M841.76,1308.71" transform="translate(0.5)"/><path class="cls-5" d="M1122.38,1080" transform="translate(0.5)"/><polyline class="cls-5" points="1047.33 1080 1280 890 1356 890 1122.88 1080"/><path class="cls-5" d="M1046.83,1080" transform="translate(0.5)"/><path class="cls-5" d="M761.5,1313" transform="translate(0.5)"/><polygon class="cls-2" points="1316 820 1834 397 1910 397 1391 820 1316 820"/><path class="cls-5" d="M2062.5-48" transform="translate(0.5)"/><path class="cls-5" d="M1920,68.37" transform="translate(0.5)"/><polyline class="cls-5" points="1920.5 130.08 1620 375 1545 375 1920.5 68.37"/><path class="cls-5" d="M1920,130.08" transform="translate(0.5)"/><path class="cls-5" d="M2138.5-48" transform="translate(0.5)"/><path class="cls-5" d="M2138.5-48" transform="translate(0.5)"/><path class="cls-5" d="M2062.5-48" transform="translate(0.5)"/><path class="cls-2" d="M1920,769" transform="translate(0.5)"/><path class="cls-2" d="M2009.5,696" transform="translate(0.5)"/><path class="cls-2" d="M2009.5,696" transform="translate(0.5)"/><path class="cls-2" d="M1933.5,696" transform="translate(0.5)"/><line class="cls-2" x1="1920.5" y1="707.02" x2="1934" y2="696"/><polygon class="cls-6" points="560 810 1078 387 1154 387 635 810 560 810"/><polygon class="cls-7" points="149 947 667 524 743 524 224 947 149 947"/><polygon class="cls-8" points="149 696 667 273 743 273 224 696 149 696"/><path class="cls-7" d="M-.5,567.47" transform="translate(0.5)"/><path class="cls-7" d="M-297.5,810" transform="translate(0.5)"/><path class="cls-7" d="M-297.5,810" transform="translate(0.5)"/><path class="cls-7" d="M-222.5,810" transform="translate(0.5)"/><path class="cls-7" d="M-222.5,810" transform="translate(0.5)"/><path class="cls-7" d="M-.5,629.06" transform="translate(0.5)"/><polyline class="cls-7" points="0 567.47 221 387 297 387 0 629.06"/><polygon class="cls-2" points="1328 1080 1846 657 1922 657 1403 1080 1328 1080"/><polyline class="cls-7" points="137 65.61 276.52 0 324.5 0 137 88"/><path class="cls-8" d="M355.6,2.58c3.33.32,8-.58,11.4-.58-3.36,0-8.07.9-11.4.58L224,68h65.53L421.69,2.43C402.93,1.22,383.58,2,365,2" transform="translate(0.5)"/><path class="cls-8" d="M676.6-157" transform="translate(0.5)"/><path class="cls-8" d="M676.6-157" transform="translate(0.5)"/><path class="cls-8" d="M743-157" transform="translate(0.5)"/><path class="cls-8" d="M743-157" transform="translate(0.5)"/><path class="cls-8" d="M421.69,2.43" transform="translate(0.5)"/><path class="cls-8" d="M365,2c18.58,0,37.93-.78,56.69.43" transform="translate(0.5)"/></svg>