<svg id="Layer_1" data-name="Layer 1" xmlns="http://www.w3.org/2000/svg" viewBox="0 0 274 344"><defs><style>.cls-1{fill:#c6c6c6;}.cls-2{fill:#8e8e8e;}.cls-3{fill:#9b9b9b;}.cls-4{fill:#474747;}.cls-5{fill:#00943a;}</style></defs><title>Foostel-Logo</title><circle class="cls-1" cx="111.5" cy="111.5" r="111.5"/><path class="cls-2" d="M70.5,183.5l71-67a42,42,0,0,1,1-22c1.12-3.43,4.77-14.58,16-21,1.68-1,13-7.2,24-3,2.06.78,5.8,2.27,8,6s1.64,7.43,1,12a33.83,33.83,0,0,1-19,27,40.69,40.69,0,0,1-14,4,50.66,50.66,0,0,1-13,0l-67,71a5.37,5.37,0,0,1-8-7Z" transform="translate(-17 -19)"/><path class="cls-2" d="M137,153l48,52a13.13,13.13,0,0,0,18-18l-53-49-6,5,52,47a5.88,5.88,0,0,1,0,7,5.94,5.94,0,0,1-8,1l-47-51Z" transform="translate(-17 -19)"/><path class="cls-2" d="M102,128c-9.53-7.55-41-32.83-44-42-.41-1.26-1.47-4.53,0-6a4.26,4.26,0,0,1,6,0l39,39a2.58,2.58,0,1,0,4-3L68,77c-1.79-2.33-2-5-1-6s4.49-.9,7,2l37,39a2.92,2.92,0,1,0,5-3L76,68a2.83,2.83,0,0,1,4-4l40,39c.63-.17,1.6-.42,2.8-.7s1.16-.25,1.2-.3c.54-.61-6.63-8.49-40-40-1.42-3.58-1.16-6.44,0-7,1.36-.66,3.87,1.87,4,2l40,39q.5,5.5,1,11l-23,24Z" transform="translate(-17 -19)"/><rect class="cls-3" x="119" y="134" width="155" height="210" rx="4.65"/><rect class="cls-4" x="140" y="267" width="47" height="77"/><rect class="cls-4" x="137" y="168" width="50" height="19"/><rect class="cls-4" x="137" y="200" width="50" height="19"/><path class="cls-5" d="M-386,157" transform="translate(-17 -19)"/></svg>